<svg width="78" height="78" viewBox="0 0 78 78" fill="none" xmlns="http://www.w3.org/2000/svg">
<path d="M35 67C52.6731 67 67 52.6731 67 35C67 17.3269 52.6731 3 35 3C17.3269 3 3 17.3269 3 35C3 52.6731 17.3269 67 35 67Z" stroke="black" stroke-width="5.33333" stroke-linecap="round" stroke-linejoin="round"/>
<path d="M75 75L57.6 57.6" stroke="black" stroke-width="5.33333" stroke-linecap="round" stroke-linejoin="round"/>
<path d="M35 45C40.5228 45 45 40.5228 45 35C45 29.4772 40.5228 25 35 25C29.4772 25 25 29.4772 25 35C25 40.5228 29.4772 45 35 45Z" stroke="black" stroke-width="2" stroke-linecap="round" stroke-linejoin="round"/>
<path d="M39 39C39 39 37.5 37 35 37C32.5 37 31 39 31 39" stroke="black" stroke-width="2" stroke-linecap="round" stroke-linejoin="round"/>
<path d="M32 32H32.01" stroke="black" stroke-width="2" stroke-linecap="round" stroke-linejoin="round"/>
<path d="M38 32H38.01" stroke="black" stroke-width="2" stroke-linecap="round" stroke-linejoin="round"/>
</svg>
