<svg width="164" height="164" viewBox="0 0 164 164" fill="none" xmlns="http://www.w3.org/2000/svg">
<path fill-rule="evenodd" clip-rule="evenodd" d="M164 0H0V164H105.651C94.2757 159.062 84.4248 150.407 78.1116 138.639C63.1877 110.82 73.6919 76.1442 101.565 61.1912C122.241 50.099 146.67 52.9712 164 66.5473V0ZM164 147.487C163.986 147.46 163.971 147.433 163.957 147.405C162.581 144.798 160.505 140.868 158.089 136.364C155.568 131.664 152.31 129.464 149.661 128.873C160.232 121.596 169.754 111.002 159.376 91.6555C156.426 86.1562 152.057 82.7132 146.928 80.922C146.772 79.3725 145.752 73.3218 139.283 67.858C139.283 67.858 134.324 68.7751 128.186 80.4599C123.553 81.5075 118.932 83.2667 114.632 85.5486C110.353 87.8691 106.335 90.7452 102.907 94.021C89.7657 92.6787 86.2531 96.3064 86.2531 96.3064C87.2347 104.715 91.7104 108.911 92.9151 109.898C91.5786 115.158 92.0176 120.709 94.9678 126.209C105.322 145.509 119.424 143.505 131.319 138.764C130.55 140.796 130.434 143.721 131.727 147.219C129.538 150.051 123.426 156.197 114.792 150.912C114.792 150.912 109.53 147.508 104.271 149.872C104.271 149.872 99.3115 152.45 105.568 153.119C105.568 153.119 109.707 152.893 115.126 157.483C115.126 157.483 122.912 164.882 135.32 154.303C136.569 156.603 137.787 158.827 138.739 160.565C139.524 161.998 140.128 163.102 140.419 163.643C140.48 163.758 140.536 163.877 140.584 164H164V147.487ZM107.705 150.498C108.156 150.477 108.511 150.19 108.488 149.88C108.479 149.561 108.086 149.329 107.631 149.361C107.173 149.384 106.816 149.669 106.846 149.985C106.862 150.299 107.25 150.53 107.705 150.498ZM111.001 151.079C111.509 151.26 112.035 151.111 112.156 150.759C112.287 150.399 111.973 149.967 111.452 149.789C110.932 149.616 110.42 149.756 110.291 150.112C110.168 150.469 110.482 150.905 111.001 151.079ZM114.016 152.844C114.569 153.124 115.183 153.054 115.377 152.674L115.377 152.674C115.575 152.285 115.287 151.748 114.734 151.458C114.179 151.183 113.577 151.257 113.379 151.64C113.179 152.025 113.467 152.562 114.016 152.844ZM118.614 154.908C119.268 155.092 119.902 154.857 120.015 154.405C120.149 153.945 119.703 153.437 119.048 153.266C118.392 153.087 117.754 153.319 117.637 153.775C117.523 154.228 117.955 154.738 118.614 154.908ZM123.288 154.596C123.949 154.457 124.421 153.973 124.331 153.513C124.235 153.048 123.614 152.79 122.952 152.925C122.28 153.054 121.81 153.546 121.904 154.008C122.003 154.468 122.624 154.73 123.288 154.596ZM128.161 153.051C128.757 152.721 129.057 152.117 128.82 151.709C128.598 151.296 127.928 151.226 127.334 151.56C126.736 151.894 126.445 152.49 126.67 152.909C126.896 153.314 127.565 153.388 128.161 153.051ZM132.456 150.755C132.992 150.324 133.186 149.684 132.897 149.317C132.599 148.946 131.935 148.989 131.393 149.413C130.866 149.834 130.665 150.478 130.96 150.855C131.25 151.216 131.927 151.175 132.456 150.755Z" fill="#1C1C1C"/>
<path d="M26.5859 13.3506V16.6081H18.1969V21.7684H24.6256V24.9683H18.1969V33.4726H14.161V13.3506H26.5859ZM31.4946 15.5992C30.7835 15.5992 30.1877 15.3781 29.7072 14.9361C29.246 14.4749 29.0153 13.9079 29.0153 13.2352C29.0153 12.5626 29.246 12.0052 29.7072 11.5632C30.1877 11.102 30.7835 10.8713 31.4946 10.8713C32.2057 10.8713 32.7918 11.102 33.2531 11.5632C33.7335 12.0052 33.9738 12.5626 33.9738 13.2352C33.9738 13.9079 33.7335 14.4749 33.2531 14.9361C32.7918 15.3781 32.2057 15.5992 31.4946 15.5992ZM33.4837 17.5018V33.4726H29.4478V17.5018H33.4837ZM46.3215 17.2712C48.2242 17.2712 49.7617 17.8766 50.934 19.0874C52.1064 20.2789 52.6925 21.9509 52.6925 24.1034V33.4726H48.6566V24.6512C48.6566 23.3827 48.3395 22.4122 47.7053 21.7395C47.071 21.0477 46.2062 20.7017 45.1107 20.7017C43.996 20.7017 43.112 21.0477 42.4585 21.7395C41.8243 22.4122 41.5072 23.3827 41.5072 24.6512V33.4726H37.4713V17.5018H41.5072V19.4909C42.0453 18.7991 42.7276 18.2609 43.554 17.8766C44.3996 17.473 45.3221 17.2712 46.3215 17.2712ZM55.4927 25.4295C55.4927 23.8152 55.8098 22.3834 56.444 21.1342C57.0975 19.8849 57.9815 18.924 59.0962 18.2513C60.2109 17.5787 61.4505 17.2424 62.815 17.2424C63.8529 17.2424 64.8426 17.473 65.7843 17.9342C66.7261 18.3763 67.4756 18.972 68.0329 19.7216V12.1398H72.1265V33.4726H68.0329V31.1087C67.5332 31.8967 66.8318 32.5309 65.9285 33.0113C65.0252 33.4918 63.9778 33.732 62.7862 33.732C61.4409 33.732 60.2109 33.3861 59.0962 32.6942C57.9815 32.0024 57.0975 31.0318 56.444 29.7826C55.8098 28.5142 55.4927 27.0631 55.4927 25.4295ZM68.0618 25.4872C68.0618 24.507 67.8696 23.671 67.4852 22.9792C67.1008 22.2681 66.5819 21.7299 65.9285 21.3648C65.275 20.9804 64.5736 20.7882 63.824 20.7882C63.0745 20.7882 62.3826 20.9708 61.7484 21.3359C61.1142 21.7011 60.5953 22.2392 60.1917 22.9503C59.8073 23.6422 59.6151 24.4686 59.6151 25.4295C59.6151 26.3905 59.8073 27.2361 60.1917 27.9664C60.5953 28.6775 61.1142 29.2252 61.7484 29.6096C62.4018 29.994 63.0937 30.1862 63.824 30.1862C64.5736 30.1862 65.275 30.0036 65.9285 29.6384C66.5819 29.2541 67.1008 28.7159 67.4852 28.0241C67.8696 27.313 68.0618 26.4674 68.0618 25.4872ZM24.5391 60.6992L20.0996 52.8579H18.1969V60.6992H14.161V40.5771H21.714C23.2707 40.5771 24.5968 40.8558 25.6923 41.4131C26.7877 41.9513 27.6045 42.6912 28.1427 43.6329C28.7 44.5554 28.9787 45.5932 28.9787 46.7463C28.9787 48.0724 28.5943 49.2736 27.8255 50.3499C27.0568 51.4069 25.9133 52.1372 24.395 52.5408L29.2093 60.6992H24.5391ZM18.1969 49.831H21.5698C22.6653 49.831 23.4821 49.5715 24.0202 49.0526C24.5584 48.5145 24.8274 47.7745 24.8274 46.8328C24.8274 45.9103 24.5584 45.1992 24.0202 44.6995C23.4821 44.1806 22.6653 43.9212 21.5698 43.9212H18.1969V49.831ZM47.4756 52.3678C47.4756 52.9444 47.4372 53.4633 47.3603 53.9245H35.6849C35.781 55.0777 36.1846 55.9809 36.8957 56.6344C37.6068 57.2878 38.4812 57.6145 39.519 57.6145C41.0181 57.6145 42.0847 56.9707 42.719 55.6831H47.072C46.6107 57.2206 45.7267 58.489 44.4198 59.4884C43.1129 60.4685 41.5082 60.9586 39.6055 60.9586C38.068 60.9586 36.6843 60.6223 35.4543 59.9496C34.2435 59.2577 33.2922 58.2872 32.6003 57.038C31.9276 55.7888 31.5911 54.3474 31.5911 52.7138C31.5911 51.061 31.9276 49.6099 32.6003 48.3607C33.2729 47.1115 34.2147 46.1506 35.4254 45.4779C36.6362 44.8052 38.0296 44.4689 39.6055 44.4689C41.1238 44.4689 42.4787 44.7956 43.6703 45.4491C44.8811 46.1025 45.8132 47.0346 46.4666 48.2454C47.1393 49.437 47.4756 50.8111 47.4756 52.3678ZM43.2955 51.2147C43.2763 50.1769 42.9015 49.3505 42.1712 48.7355C41.4409 48.1013 40.5472 47.7842 39.4902 47.7842C38.4908 47.7842 37.6452 48.0917 36.9533 48.7067C36.2807 49.3024 35.8675 50.1384 35.7137 51.2147H43.2955ZM54.4573 47.0346C54.9762 46.3043 55.6873 45.6989 56.5906 45.2184C57.5131 44.7188 58.5605 44.4689 59.7328 44.4689C61.0974 44.4689 62.3274 44.8052 63.4228 45.4779C64.5375 46.1506 65.412 47.1115 66.0462 48.3607C66.6996 49.5907 67.0263 51.0225 67.0263 52.6561C67.0263 54.2897 66.6996 55.7407 66.0462 57.0092C65.412 58.2584 64.5375 59.2289 63.4228 59.9208C62.3274 60.6127 61.0974 60.9586 59.7328 60.9586C58.5605 60.9586 57.5227 60.7184 56.6194 60.2379C55.7353 59.7574 55.0146 59.152 54.4573 58.4217V68.3098H50.4213V44.7284H54.4573V47.0346ZM62.9039 52.6561C62.9039 51.6952 62.7021 50.8688 62.2985 50.1769C61.9142 49.4658 61.3953 48.9277 60.7418 48.5625C60.1076 48.1974 59.4157 48.0148 58.6662 48.0148C57.9359 48.0148 57.244 48.207 56.5906 48.5913C55.9564 48.9565 55.4374 49.4946 55.0338 50.2057C54.6495 50.9168 54.4573 51.7528 54.4573 52.7138C54.4573 53.6747 54.6495 54.5107 55.0338 55.2218C55.4374 55.9329 55.9564 56.4806 56.5906 56.865C57.244 57.2302 57.9359 57.4127 58.6662 57.4127C59.4157 57.4127 60.1076 57.2206 60.7418 56.8362C61.3953 56.4518 61.9142 55.9041 62.2985 55.193C62.7021 54.4819 62.9039 53.6363 62.9039 52.6561ZM77.0508 60.9586C75.5133 60.9586 74.1296 60.6223 72.8996 59.9496C71.6696 59.2577 70.6991 58.2872 69.988 57.038C69.2961 55.7888 68.9501 54.3474 68.9501 52.7138C68.9501 51.0802 69.3057 49.6388 70.0168 48.3895C70.7471 47.1403 71.7369 46.1794 72.9861 45.5067C74.2353 44.8149 75.6287 44.4689 77.1662 44.4689C78.7037 44.4689 80.097 44.8149 81.3462 45.5067C82.5955 46.1794 83.5756 47.1403 84.2867 48.3895C85.017 49.6388 85.3822 51.0802 85.3822 52.7138C85.3822 54.3474 85.0074 55.7888 84.2579 57.038C83.5276 58.2872 82.5282 59.2577 81.2598 59.9496C80.0105 60.6223 78.6076 60.9586 77.0508 60.9586ZM77.0508 57.4416C77.7812 57.4416 78.4634 57.2686 79.0976 56.9227C79.7511 56.5575 80.27 56.0194 80.6544 55.3083C81.0387 54.5972 81.2309 53.7324 81.2309 52.7138C81.2309 51.1955 80.8273 50.0327 80.0201 49.2256C79.2322 48.3992 78.2616 47.9859 77.1085 47.9859C75.9554 47.9859 74.9848 48.3992 74.1969 49.2256C73.4281 50.0327 73.0437 51.1955 73.0437 52.7138C73.0437 54.232 73.4185 55.4044 74.168 56.2308C74.9368 57.038 75.8977 57.4416 77.0508 57.4416Z" fill="white"/>
</svg>
